<mxfile host="65bd71144e">
    <diagram id="BsM6_5TgFT7C-uKaVf2N" name="Page-1">
        <mxGraphModel dx="1097" dy="779" grid="1" gridSize="10" guides="1" tooltips="1" connect="1" arrows="1" fold="1" page="1" pageScale="1" pageWidth="1600" pageHeight="900" math="0" shadow="0">
            <root>
                <mxCell id="0"/>
                <mxCell id="1" parent="0"/>
                <mxCell id="2" value="" style="rounded=1;fontSize=16;fontColor=#000000;fillColor=#fa6800;strokeColor=#C73500;" parent="1" vertex="1">
                    <mxGeometry x="893" y="380" width="150" height="90" as="geometry"/>
                </mxCell>
                <mxCell id="3" value="" style="rounded=1;fontSize=16;fontColor=#000000;fillColor=#fa6800;strokeColor=#C73500;" parent="1" vertex="1">
                    <mxGeometry x="743" y="380" width="150" height="90" as="geometry"/>
                </mxCell>
                <mxCell id="4" value="" style="rounded=1;fontSize=16;fontColor=#000000;fillColor=#fa6800;strokeColor=#C73500;" parent="1" vertex="1">
                    <mxGeometry x="593" y="380" width="150" height="90" as="geometry"/>
                </mxCell>
                <mxCell id="5" value="" style="rounded=1;fontSize=16;fontColor=#000000;fillColor=#fa6800;strokeColor=#C73500;" parent="1" vertex="1">
                    <mxGeometry x="443" y="380" width="150" height="90" as="geometry"/>
                </mxCell>
                <mxCell id="6" value="MAVLink Message Frame 1" style="rounded=1;fillColor=#60a917;fontColor=#ffffff;strokeColor=#2D7600;fontSize=16;" parent="1" vertex="1">
                    <mxGeometry x="443" y="130" width="200" height="40" as="geometry"/>
                </mxCell>
                <mxCell id="7" value="MAVLink Message&#10;Frame 2" style="rounded=1;fillColor=#60a917;fontColor=#ffffff;strokeColor=#2D7600;fontSize=16;" parent="1" vertex="1">
                    <mxGeometry x="683" y="130" width="136" height="40" as="geometry"/>
                </mxCell>
                <mxCell id="8" value="MAVLink Message Frame 3" style="rounded=1;fillColor=#60a917;fontColor=#ffffff;strokeColor=#2D7600;fontSize=16;" parent="1" vertex="1">
                    <mxGeometry x="863" y="130" width="340" height="40" as="geometry"/>
                </mxCell>
                <mxCell id="9" value="" style="shape=flexArrow;endArrow=classic;fillColor=#fa6800;strokeColor=#C73500;" parent="1" edge="1">
                    <mxGeometry width="50" height="50" relative="1" as="geometry">
                        <mxPoint x="773" y="220" as="sourcePoint"/>
                        <mxPoint x="773" y="280" as="targetPoint"/>
                    </mxGeometry>
                </mxCell>
                <mxCell id="10" value="MAVLink Message Frame 1" style="rounded=1;fillColor=#60a917;fontColor=#ffffff;strokeColor=#2D7600;fontSize=16;" parent="1" vertex="1">
                    <mxGeometry x="443" y="420" width="200" height="40" as="geometry"/>
                </mxCell>
                <mxCell id="11" value="MAVLink Message&#10;Frame 2" style="rounded=1;fillColor=#60a917;fontColor=#ffffff;strokeColor=#2D7600;fontSize=16;" parent="1" vertex="1">
                    <mxGeometry x="643" y="420" width="136" height="40" as="geometry"/>
                </mxCell>
                <mxCell id="12" value="MAVLink Message Frame 3&#10;" style="rounded=1;fillColor=#60a917;fontColor=#ffffff;strokeColor=#2D7600;fontSize=16;" parent="1" vertex="1">
                    <mxGeometry x="779" y="420" width="340" height="40" as="geometry"/>
                </mxCell>
                <mxCell id="13" value="" style="endArrow=none;dashed=1;fontSize=16;fontColor=#FFFFFF;strokeWidth=3;fillColor=#fa6800;strokeColor=#C73500;" parent="1" edge="1">
                    <mxGeometry width="50" height="50" relative="1" as="geometry">
                        <mxPoint x="593" y="490" as="sourcePoint"/>
                        <mxPoint x="593" y="330" as="targetPoint"/>
                    </mxGeometry>
                </mxCell>
                <mxCell id="14" value="" style="endArrow=none;dashed=1;fontSize=16;fontColor=#FFFFFF;strokeWidth=3;fillColor=#fa6800;strokeColor=#C73500;" parent="1" edge="1">
                    <mxGeometry width="50" height="50" relative="1" as="geometry">
                        <mxPoint x="743" y="490" as="sourcePoint"/>
                        <mxPoint x="743" y="330" as="targetPoint"/>
                    </mxGeometry>
                </mxCell>
                <mxCell id="15" value="" style="shape=flexArrow;endArrow=classic;fillColor=#1ba1e2;strokeColor=#006EAF;" parent="1" edge="1">
                    <mxGeometry width="50" height="50" relative="1" as="geometry">
                        <mxPoint x="772.9999999999995" y="540" as="sourcePoint"/>
                        <mxPoint x="772.9999999999995" y="600" as="targetPoint"/>
                    </mxGeometry>
                </mxCell>
                <mxCell id="16" value="Framing" style="rounded=1;fontSize=16;fontColor=#FFFFFF;fillColor=#fa6800;strokeColor=#C73500;" parent="1" vertex="1">
                    <mxGeometry x="813" y="230" width="120" height="40" as="geometry"/>
                </mxCell>
                <mxCell id="17" value="Encryption" style="rounded=1;fontSize=16;fontColor=#ffffff;fillColor=#1ba1e2;strokeColor=#006EAF;" parent="1" vertex="1">
                    <mxGeometry x="813" y="560" width="120" height="40" as="geometry"/>
                </mxCell>
                <mxCell id="18" value="Plaintext Frame 1" style="text;strokeColor=none;fillColor=none;align=center;verticalAlign=middle;rounded=0;fontSize=16;fontColor=#FFFFFF;" parent="1" vertex="1">
                    <mxGeometry x="400" y="390" width="236" height="30" as="geometry"/>
                </mxCell>
                <mxCell id="19" value="Plaintext Frame 2" style="text;strokeColor=none;fillColor=none;align=center;verticalAlign=middle;rounded=0;fontSize=16;fontColor=#FFFFFF;" parent="1" vertex="1">
                    <mxGeometry x="550" y="390" width="236" height="30" as="geometry"/>
                </mxCell>
                <mxCell id="20" value="Plaintext Frame 3" style="text;strokeColor=none;fillColor=none;align=center;verticalAlign=middle;rounded=0;fontSize=16;fontColor=#FFFFFF;" parent="1" vertex="1">
                    <mxGeometry x="700" y="390" width="236" height="30" as="geometry"/>
                </mxCell>
                <mxCell id="21" value="Plaintext Frame 4" style="text;strokeColor=none;fillColor=none;align=center;verticalAlign=middle;rounded=0;fontSize=16;fontColor=#FFFFFF;" parent="1" vertex="1">
                    <mxGeometry x="850" y="390" width="236" height="30" as="geometry"/>
                </mxCell>
                <mxCell id="22" value="" style="endArrow=none;dashed=1;fontSize=16;fontColor=#FFFFFF;strokeWidth=3;fillColor=#fa6800;strokeColor=#C73500;" parent="1" edge="1">
                    <mxGeometry width="50" height="50" relative="1" as="geometry">
                        <mxPoint x="893" y="485" as="sourcePoint"/>
                        <mxPoint x="893" y="325" as="targetPoint"/>
                    </mxGeometry>
                </mxCell>
                <mxCell id="23" value="" style="endArrow=none;dashed=1;fontSize=16;fontColor=#FFFFFF;strokeWidth=3;fillColor=#fa6800;strokeColor=#C73500;" parent="1" edge="1">
                    <mxGeometry width="50" height="50" relative="1" as="geometry">
                        <mxPoint x="1043.0000000000005" y="485" as="sourcePoint"/>
                        <mxPoint x="1043.0000000000005" y="325" as="targetPoint"/>
                    </mxGeometry>
                </mxCell>
                <mxCell id="24" value="Ciphertext Frame 1" style="rounded=1;fontSize=16;fontColor=#ffffff;fillColor=#1ba1e2;strokeColor=#006EAF;" parent="1" vertex="1">
                    <mxGeometry x="443" y="670" width="150" height="50" as="geometry"/>
                </mxCell>
                <mxCell id="25" value="Ciphertext Frame 2" style="rounded=1;fontSize=16;fontColor=#ffffff;fillColor=#1ba1e2;strokeColor=#006EAF;" parent="1" vertex="1">
                    <mxGeometry x="623" y="670" width="150" height="50" as="geometry"/>
                </mxCell>
                <mxCell id="26" value="Ciphertext Frame 3" style="rounded=1;fontSize=16;fontColor=#ffffff;fillColor=#1ba1e2;strokeColor=#006EAF;" parent="1" vertex="1">
                    <mxGeometry x="803" y="670" width="150" height="50" as="geometry"/>
                </mxCell>
                <mxCell id="27" value="Ciphertext Frame 4" style="rounded=1;fontSize=16;fontColor=#ffffff;fillColor=#1ba1e2;strokeColor=#006EAF;" parent="1" vertex="1">
                    <mxGeometry x="983" y="670" width="150" height="50" as="geometry"/>
                </mxCell>
            </root>
        </mxGraphModel>
    </diagram>
</mxfile>